<?xml version="1.0" standalone="no"?>
<!DOCTYPE svg PUBLIC "-//W3C//DTD SVG 20010904//EN"
 "http://www.w3.org/TR/2001/REC-SVG-20010904/DTD/svg10.dtd">
<svg version="1.0" xmlns="http://www.w3.org/2000/svg"
 width="512.000000pt" height="512.000000pt" viewBox="0 0 512.000000 512.000000"
 preserveAspectRatio="xMidYMid meet">
<metadata>
Created by potrace 1.14, written by Peter Selinger 2001-2017
</metadata>
<g transform="translate(0.000000,512.000000) scale(0.100000,-0.100000)"
fill="#000000" stroke="none">
<path d="M0 2560 l0 -2560 2560 0 2560 0 0 2560 0 2560 -2560 0 -2560 0 0
-2560z m2894 1851 c20 -22 86 -194 86 -225 0 -11 -18 -102 -41 -201 -49 -222
-139 -643 -139 -656 0 -5 6 -9 13 -9 6 0 24 -21 39 -48 28 -49 178 -202 199
-202 6 0 9 -7 5 -15 -5 -13 17 -15 152 -17 86 -2 276 -1 422 1 l266 4 28 -24
c36 -32 48 -93 31 -159 -8 -29 -48 -100 -104 -182 l-91 -135 -71 -6 c-96 -8
-138 -31 -169 -93 -22 -44 -25 -62 -26 -169 -1 -66 -2 -124 -3 -130 -3 -19
-21 20 -21 46 0 29 -59 125 -111 180 -19 20 -65 57 -103 83 -54 37 -75 46 -94
41 -37 -9 -78 -59 -98 -118 -24 -75 -58 -138 -89 -167 -15 -14 -33 -37 -41
-52 -19 -36 -18 -116 2 -153 8 -16 29 -62 46 -102 19 -47 42 -83 66 -104 35
-31 37 -32 114 -26 61 5 77 4 71 -6 -4 -7 -39 -57 -77 -112 -39 -55 -101 -145
-138 -200 -37 -55 -76 -111 -85 -123 -10 -13 -140 -202 -290 -420 -281 -409
-390 -545 -443 -557 -70 -15 -120 23 -120 92 0 26 56 291 100 478 31 126 120
543 120 557 0 10 -2 10 -9 -1 -7 -10 -11 -6 -16 17 -4 19 -30 55 -71 94 -35
35 -67 71 -70 81 -3 11 -12 16 -20 13 -8 -3 -14 1 -14 9 0 8 -4 15 -10 15 -5
0 -31 15 -57 34 -27 18 -64 41 -84 50 -20 9 -47 27 -60 39 -23 21 -31 22 -374
27 -192 4 -357 10 -366 13 -23 11 -49 61 -49 94 0 37 53 122 231 375 l48 66
-37 7 c-36 7 -36 8 -12 17 14 5 25 8 26 6 0 -2 20 17 42 41 26 28 44 59 48 80
4 20 9 40 12 45 10 18 10 101 0 114 -16 18 -3 26 21 12 17 -8 21 -20 21 -58 0
-26 5 -74 11 -107 6 -33 11 -75 10 -92 l-1 -33 66 0 c36 0 86 5 112 12 47 11
142 66 142 81 0 5 11 23 24 40 16 22 25 50 28 88 3 42 13 69 37 105 29 44 32
55 29 107 -6 78 -20 90 -108 95 -39 2 -70 8 -70 13 0 10 122 188 479 699 121
173 288 413 371 533 l152 217 47 0 c34 0 53 -5 65 -19z m-1789 -1568 c-6 -16
-8 -15 -17 7 -19 45 -18 54 4 32 14 -14 18 -26 13 -39z m200 7 c9 -16 13 -30
11 -30 -3 0 -14 14 -26 30 -12 17 -17 30 -11 30 6 0 17 -13 26 -30z m485 -40
c19 -36 -12 -90 -51 -90 -18 0 -18 2 -5 35 13 31 13 35 0 35 -8 0 -23 -14 -34
-32 -21 -35 -14 -48 28 -48 12 0 25 -7 28 -15 10 -25 -16 -45 -58 -45 -35 0
-39 -2 -28 -15 16 -19 33 -19 70 0 29 15 30 15 30 -9 0 -19 -10 -29 -45 -46
-29 -14 -55 -20 -70 -16 -28 7 -75 68 -57 74 7 2 12 16 12 31 0 15 6 33 13 40
10 11 10 13 0 7 -22 -12 -14 11 14 45 56 66 131 90 153 49z m-717 -67 c-6 -35
-17 -43 -27 -18 -3 9 2 24 11 35 21 24 22 23 16 -17z m147 18 c0 -5 3 -17 7
-27 3 -10 2 -15 -3 -12 -5 4 -9 -6 -10 -20 0 -15 -5 -42 -9 -61 -11 -46 6 -35
50 35 19 30 39 54 44 54 5 0 8 -46 7 -102 -1 -108 0 -105 -46 -99 -5 0 -10 18
-10 38 l0 37 -28 -34 c-32 -37 -68 -46 -83 -19 -14 26 30 192 56 211 14 10 25
10 25 -1z m-230 -29 c0 -18 -26 -32 -57 -32 -18 0 -33 -1 -33 -3 0 -1 -4 -16
-9 -34 -9 -31 -9 -31 24 -27 37 4 48 -4 35 -25 -6 -11 -15 -11 -39 -3 -35 12
-33 14 -55 -54 -11 -34 -24 -54 -36 -57 -11 -3 -22 -2 -25 2 -5 8 14 82 39
151 20 56 20 71 1 64 -8 -4 -15 -2 -15 4 0 5 23 10 52 11 28 0 53 3 56 6 9 8
62 6 62 -3z m130 -324 c0 -82 -2 -90 -27 -117 -16 -16 -40 -32 -55 -35 -31 -7
-37 4 -13 24 8 7 15 18 15 24 0 6 9 17 20 24 19 11 20 20 16 105 -2 50 -9 108
-15 127 -16 51 -14 50 24 -10 32 -52 35 -60 35 -142z m2652 -128 c53 -15 78
-50 68 -96 -12 -52 -58 -97 -92 -90 -22 4 -27 1 -30 -17 -4 -26 -53 -56 -68
-41 -7 7 -1 37 20 98 24 72 27 91 17 107 -10 17 -9 23 7 35 23 17 30 17 78 4z
m557 -11 c17 -16 21 -28 16 -48 -8 -32 -23 -51 -41 -51 -19 0 -18 -10 3 -25
15 -11 14 -14 -5 -33 -17 -17 -30 -21 -57 -16 -28 4 -35 2 -35 -11 0 -24 24
-28 66 -10 70 29 70 -20 0 -55 -50 -24 -68 -25 -105 -5 -35 18 -55 64 -47 107
8 42 68 123 109 148 41 26 68 25 96 -1z m-1063 -47 c22 -14 44 -72 44 -115 0
-25 7 -64 15 -87 17 -49 13 -60 -21 -60 -19 0 -29 8 -37 30 -10 26 -16 30 -48
30 -28 0 -41 -6 -53 -26 -19 -28 -64 -31 -57 -4 2 8 5 27 6 42 4 35 13 48 34
48 16 0 56 71 75 133 6 18 23 22 42 9z"/>
<path d="M2140 2846 c-25 -14 -64 -34 -86 -45 -45 -23 -94 -73 -120 -123 -12
-23 -15 -46 -11 -82 5 -43 12 -56 44 -83 72 -61 160 -68 290 -22 122 43 168
71 199 125 22 37 26 54 22 94 -7 72 -43 109 -132 137 -94 30 -150 29 -206 -1z
m30 -161 c0 -94 0 -95 24 -95 14 0 27 4 30 9 3 5 15 11 26 14 15 4 20 0 20
-14 0 -24 -55 -59 -91 -59 -45 0 -51 18 -43 127 7 103 9 113 25 113 5 0 9 -42
9 -95z"/>
<path d="M2192 2359 c-34 -33 -69 -73 -76 -88 -44 -83 -40 -374 6 -479 31 -71
78 -110 136 -112 85 -4 98 -1 144 40 64 56 79 100 77 224 -2 120 -15 198 -55
320 -29 89 -58 130 -102 147 -47 18 -68 10 -130 -52z m176 -272 c3 -40 -11
-67 -34 -67 -9 0 -14 12 -14 36 0 21 -4 33 -10 29 -17 -11 -11 -45 16 -91 24
-41 26 -49 15 -83 -22 -74 -70 -87 -126 -35 -29 27 -31 37 -9 58 21 22 26 20
46 -14 18 -31 38 -40 38 -16 0 7 -13 38 -30 69 -37 69 -38 100 -5 133 20 20
33 25 68 22 41 -3 42 -4 45 -41z"/>
<path d="M2725 2409 c-89 -13 -140 -35 -171 -76 -23 -31 -29 -52 -41 -162 -18
-154 -13 -220 22 -331 31 -97 50 -123 103 -138 81 -23 134 -23 202 1 85 29
115 69 106 139 -10 77 -38 131 -80 153 -49 26 -48 32 12 138 19 32 21 48 16
115 -7 105 -10 115 -38 145 -27 29 -35 30 -131 16z m39 -249 c18 -6 26 -17 26
-34 0 -49 -51 -136 -80 -136 -12 0 -13 47 -1 54 12 8 20 66 10 72 -18 11 -73
-113 -63 -141 8 -19 25 -19 69 2 19 9 38 14 42 10 13 -14 -22 -59 -56 -73 -41
-17 -67 -13 -103 15 -22 18 -24 25 -18 64 10 68 54 135 103 158 50 22 41 21
71 9z"/>
<path d="M1185 2692 c-6 -4 -12 -20 -14 -37 -4 -36 2 -32 17 13 12 35 12 35
-3 24z"/>
<path d="M1271 2653 c-10 -26 -10 -27 4 -9 8 11 15 23 15 28 0 15 -7 8 -19
-19z"/>
<path d="M861 2668 c0 -9 -4 -25 -7 -35 -5 -17 -5 -17 6 0 6 10 9 25 7 35 -4
15 -5 15 -6 0z"/>
<path d="M3748 2169 c-16 -47 -15 -49 0 -37 26 20 32 31 32 61 0 42 -15 32
-32 -24z"/>
<path d="M4242 2208 c-11 -18 -18 -36 -16 -40 5 -8 34 -11 34 -4 0 2 7 20 15
40 13 31 13 36 1 36 -8 0 -23 -14 -34 -32z"/>
<path d="M3236 2114 c-9 -22 -8 -24 9 -24 8 0 15 9 15 20 0 24 -15 27 -24 4z"/>
</g>
</svg>
